<svg width="533" height="170" viewBox="0 0 533 170" fill="none" xmlns="http://www.w3.org/2000/svg">
<rect y="0.857117" width="533" height="169.143" fill="#1E1E1E"/>
<path d="M79.2046 153.63C77.6646 153.63 76.2246 153.49 74.8846 153.21C73.5646 152.95 72.4546 152.6 71.5546 152.16C70.6546 151.72 69.9146 151.3 69.3346 150.9C68.7746 150.5 68.3046 150.1 67.9246 149.7L68.6746 142.41C69.4946 143.51 70.5946 144.47 71.9746 145.29C73.3546 146.09 74.8446 146.49 76.4446 146.49C78.0446 146.49 79.1946 146.32 79.8946 145.98C80.6146 145.64 80.9746 145.02 80.9746 144.12C80.9746 143.16 80.5646 142.34 79.7446 141.66C78.9446 140.98 77.5546 140.16 75.5746 139.2C74.8546 138.84 74.2446 138.52 73.7446 138.24C73.2446 137.94 72.5746 137.46 71.7346 136.8C70.9146 136.12 70.2446 135.42 69.7246 134.7C69.2046 133.96 68.7446 133.02 68.3446 131.88C67.9446 130.72 67.7446 129.48 67.7446 128.16C67.7446 121.02 71.7746 117.45 79.8346 117.45C81.1146 117.45 82.3146 117.59 83.4346 117.87C84.5746 118.13 85.4646 118.42 86.1046 118.74C86.7446 119.06 87.3246 119.44 87.8446 119.88C88.3846 120.3 88.7246 120.6 88.8646 120.78C89.0046 120.94 89.1046 121.07 89.1646 121.17L87.6646 126.96C86.8846 126.04 85.9046 125.36 84.7246 124.92C83.5646 124.46 82.4546 124.23 81.3946 124.23C78.8346 124.23 77.5546 125.03 77.5546 126.63C77.5546 127.05 77.6346 127.43 77.7946 127.77C77.9546 128.11 78.2146 128.42 78.5746 128.7C78.9346 128.98 79.2646 129.22 79.5646 129.42C79.8846 129.62 80.3146 129.87 80.8546 130.17C81.4146 130.45 81.8346 130.68 82.1146 130.86C85.0346 132.1 87.1746 133.57 88.5346 135.27C89.9146 136.97 90.6046 139.04 90.6046 141.48C90.6046 145.44 89.6246 148.46 87.6646 150.54C85.7246 152.6 82.9046 153.63 79.2046 153.63ZM106.173 150.03C107.053 150.03 107.723 149.67 108.183 148.95C108.663 148.21 108.903 147.2 108.903 145.92V136.44C108.903 132.54 107.983 130.59 106.143 130.59C105.283 130.59 104.613 130.94 104.133 131.64C103.653 132.34 103.413 133.33 103.413 134.61V144.36C103.413 148.14 104.333 150.03 106.173 150.03ZM105.933 153.63C101.353 153.63 98.0034 152.59 95.8834 150.51C93.7634 148.43 92.7034 145.11 92.7034 140.55C92.7034 136.03 93.7734 132.63 95.9134 130.35C98.0534 128.05 101.533 126.9 106.353 126.9C111.053 126.9 114.443 128 116.523 130.2C118.623 132.38 119.673 135.69 119.673 140.13C119.673 144.73 118.563 148.13 116.343 150.33C114.143 152.53 110.673 153.63 105.933 153.63ZM137.612 149.01C137.492 149.29 137.242 149.66 136.862 150.12C136.502 150.58 136.022 151.09 135.422 151.65C134.822 152.19 134.082 152.65 133.202 153.03C132.322 153.43 131.432 153.63 130.532 153.63C127.712 153.63 125.692 152.79 124.472 151.11C123.272 149.43 122.672 146.63 122.672 142.71V132.03L121.622 130.95V127.5H132.512V144.6C132.492 145.5 132.642 146.17 132.962 146.61C133.282 147.03 133.862 147.24 134.702 147.24C134.822 147.24 134.932 147.24 135.032 147.24C135.132 147.22 135.232 147.2 135.332 147.18C135.432 147.14 135.512 147.11 135.572 147.09C135.652 147.07 135.742 147.04 135.842 147C135.942 146.94 136.022 146.89 136.082 146.85C136.142 146.81 136.222 146.76 136.322 146.7C136.422 146.62 136.492 146.56 136.532 146.52C136.592 146.48 136.672 146.42 136.772 146.34C136.892 146.24 136.982 146.17 137.042 146.13V132.03L135.422 130.95V127.5H146.852V153H138.542L137.612 149.01ZM160.669 153H150.979V133.59L149.179 132.48V129.27L155.629 127.5H160.729V131.37L161.089 130.92C161.329 130.6 161.679 130.22 162.139 129.78C162.619 129.34 163.149 128.91 163.729 128.49C164.309 128.05 164.999 127.68 165.799 127.38C166.619 127.06 167.419 126.9 168.199 126.9C170.939 126.9 172.869 127.65 173.989 129.15C175.129 130.65 175.699 133.16 175.699 136.68C175.699 136.8 175.699 136.98 175.699 137.22C175.679 137.46 175.669 137.65 175.669 137.79V153H165.769V136.92C165.829 135.04 165.029 134.1 163.369 134.1C163.249 134.1 163.129 134.11 163.009 134.13C162.909 134.15 162.809 134.17 162.709 134.19C162.629 134.21 162.529 134.25 162.409 134.31C162.309 134.35 162.219 134.39 162.139 134.43C162.059 134.45 161.969 134.5 161.869 134.58C161.769 134.64 161.689 134.69 161.629 134.73C161.569 134.77 161.479 134.84 161.359 134.94C161.259 135.02 161.179 135.08 161.119 135.12C161.079 135.16 160.999 135.23 160.879 135.33C160.779 135.41 160.709 135.47 160.669 135.51V153ZM196.225 153L195.055 149.13C194.895 149.41 194.705 149.69 194.485 149.97C194.285 150.25 193.955 150.61 193.495 151.05C193.035 151.47 192.545 151.84 192.025 152.16C191.505 152.48 190.855 152.76 190.075 153C189.295 153.24 188.475 153.36 187.615 153.36C184.315 153.36 181.895 152.23 180.355 149.97C178.815 147.71 178.045 144.57 178.045 140.55C178.045 138.03 178.405 135.79 179.125 133.83C179.845 131.85 180.975 130.26 182.515 129.06C184.055 127.86 185.915 127.26 188.095 127.26C189.395 127.26 190.555 127.4 191.575 127.68C192.595 127.96 193.475 128.3 194.215 128.7V119.61L190.915 118.5V115.2L201.535 113.7H203.875V153H196.225ZM191.995 147.48C192.355 147.48 192.725 147.42 193.105 147.3C193.485 147.16 193.855 146.97 194.215 146.73V131.64C193.595 131.5 193.025 131.43 192.505 131.43C189.845 131.45 188.505 133.5 188.485 137.58V141.78C188.485 143.66 188.815 145.08 189.475 146.04C190.135 147 190.975 147.48 191.995 147.48ZM222.122 153H212.642L204.272 117.84H214.262L215.852 129.96L218.222 141.72L221.252 129.96L222.032 126.75L219.722 117.84H229.532L231.692 129.96L234.332 141.72L235.982 129.96L237.752 117.84H246.872L239.132 153H228.902L225.212 138.87L222.122 153ZM260.794 150.33L260.494 150.66C260.294 150.9 259.984 151.18 259.564 151.5C259.164 151.82 258.694 152.14 258.154 152.46C257.634 152.78 256.994 153.05 256.234 153.27C255.474 153.51 254.694 153.63 253.894 153.63C248.494 153.63 245.794 150.96 245.794 145.62C245.794 144.58 245.984 143.63 246.364 142.77C246.744 141.89 247.234 141.15 247.834 140.55C248.434 139.95 249.154 139.42 249.994 138.96C250.834 138.48 251.674 138.11 252.514 137.85C253.374 137.57 254.274 137.34 255.214 137.16C256.154 136.98 256.994 136.86 257.734 136.8C258.474 136.74 259.184 136.71 259.864 136.71V136.17C259.864 134.95 259.534 134.09 258.874 133.59C258.234 133.09 257.194 132.84 255.754 132.84C254.514 132.84 253.224 132.99 251.884 133.29C250.544 133.57 249.494 133.91 248.734 134.31L246.814 130.23C248.174 129.35 249.944 128.58 252.124 127.92C254.304 127.24 256.524 126.9 258.784 126.9C260.784 126.9 262.434 127.1 263.734 127.5C265.034 127.88 266.084 128.54 266.884 129.48C267.704 130.4 268.284 131.58 268.624 133.02C268.964 134.44 269.134 136.25 269.134 138.45V150.66L269.974 153H261.754L260.794 150.33ZM258.424 148.35C258.684 148.35 258.924 148.3 259.144 148.2C259.384 148.08 259.564 147.97 259.684 147.87C259.804 147.75 259.864 147.69 259.864 147.69V140.49C258.644 140.49 257.674 140.83 256.954 141.51C256.234 142.17 255.874 143.2 255.874 144.6C255.874 147.1 256.724 148.35 258.424 148.35ZM278.791 153L269.971 127.5H280.741L282.661 136.71L284.041 144.66L285.571 136.71L287.791 127.5H295.891L288.241 153H278.791ZM311.05 137.49C311.05 134.95 310.92 133.15 310.66 132.09C310.4 131.03 309.92 130.5 309.22 130.5C308.62 130.5 308.13 130.61 307.75 130.83C307.37 131.03 307.09 131.36 306.91 131.82C306.73 132.26 306.61 132.72 306.55 133.2C306.51 133.66 306.49 134.25 306.49 134.97V137.49H311.05ZM308.65 153.63C306.41 153.63 304.46 153.29 302.8 152.61C301.16 151.93 299.86 150.98 298.9 149.76C297.96 148.54 297.27 147.17 296.83 145.65C296.39 144.11 296.17 142.4 296.17 140.52C296.17 136.04 297.31 132.65 299.59 130.35C301.87 128.05 305.06 126.9 309.16 126.9C313.1 126.9 315.92 127.83 317.62 129.69C319.32 131.53 320.17 134.5 320.17 138.6V141.93H306.46V142.5C306.46 143.68 306.58 144.65 306.82 145.41C307.08 146.17 307.45 146.73 307.93 147.09C308.41 147.45 308.9 147.69 309.4 147.81C309.9 147.93 310.51 147.99 311.23 147.99C311.93 147.99 312.68 147.9 313.48 147.72C314.3 147.54 315.12 147.26 315.94 146.88C316.78 146.5 317.48 146.05 318.04 145.53L319.81 148.56C319.07 149.76 317.98 150.77 316.54 151.59C315.12 152.39 313.75 152.93 312.43 153.21C311.11 153.49 309.85 153.63 308.65 153.63ZM344.36 153H323.09V117.84H343.91L343.31 124.92L333.02 124.62V131.4H341.12V138.42L333.02 137.82V145.8L344.36 145.5V153ZM353.054 153H344.894L351.404 140.49L344.444 127.5H355.994L358.634 134.28L361.754 127.5H369.944L363.224 139.68L370.364 153H358.994L355.994 145.89L353.054 153ZM387.384 153C386.224 153 385.164 152.88 384.204 152.64C383.244 152.4 382.404 152.1 381.684 151.74V162.06H372.024V133.59L370.224 132.48V129.27L376.674 127.5H381.684V129.51C382.404 128.77 383.274 128.15 384.294 127.65C385.314 127.15 386.504 126.9 387.864 126.9C391.164 126.9 393.584 128.03 395.124 130.29C396.684 132.55 397.464 135.68 397.464 139.68C397.464 141.56 397.254 143.3 396.834 144.9C396.414 146.48 395.794 147.88 394.974 149.1C394.154 150.32 393.094 151.28 391.794 151.98C390.514 152.66 389.044 153 387.384 153ZM382.974 148.83C385.654 148.83 386.994 146.78 386.994 142.68V137.58C386.994 135.78 386.684 134.44 386.064 133.56C385.464 132.68 384.684 132.24 383.724 132.24C383.064 132.24 382.384 132.44 381.684 132.84V148.68C381.924 148.74 382.144 148.78 382.344 148.8C382.564 148.82 382.774 148.83 382.974 148.83ZM410.63 153H400.94V133.59L399.14 132.48V129.09L405.59 127.5H408.02L408.89 134.64C409.71 129.74 412.34 127.29 416.78 127.29C417.28 127.29 417.8 127.38 418.34 127.56L417.32 138.24C416.9 137.86 415.98 137.67 414.56 137.67C412.52 137.67 411.21 138.21 410.63 139.29V153ZM434.185 137.49C434.185 134.95 434.055 133.15 433.795 132.09C433.535 131.03 433.055 130.5 432.355 130.5C431.755 130.5 431.265 130.61 430.885 130.83C430.505 131.03 430.225 131.36 430.045 131.82C429.865 132.26 429.745 132.72 429.685 133.2C429.645 133.66 429.625 134.25 429.625 134.97V137.49H434.185ZM431.785 153.63C429.545 153.63 427.595 153.29 425.935 152.61C424.295 151.93 422.995 150.98 422.035 149.76C421.095 148.54 420.405 147.17 419.965 145.65C419.525 144.11 419.305 142.4 419.305 140.52C419.305 136.04 420.445 132.65 422.725 130.35C425.005 128.05 428.195 126.9 432.295 126.9C436.235 126.9 439.055 127.83 440.755 129.69C442.455 131.53 443.305 134.5 443.305 138.6V141.93H429.595V142.5C429.595 143.68 429.715 144.65 429.955 145.41C430.215 146.17 430.585 146.73 431.065 147.09C431.545 147.45 432.035 147.69 432.535 147.81C433.035 147.93 433.645 147.99 434.365 147.99C435.065 147.99 435.815 147.9 436.615 147.72C437.435 147.54 438.255 147.26 439.075 146.88C439.915 146.5 440.615 146.05 441.175 145.53L442.945 148.56C442.205 149.76 441.115 150.77 439.675 151.59C438.255 152.39 436.885 152.93 435.565 153.21C434.245 153.49 432.985 153.63 431.785 153.63ZM454.445 153.63C452.565 153.63 450.665 153.32 448.745 152.7C446.825 152.06 445.595 151.44 445.055 150.84L445.835 146.01C446.515 146.67 447.645 147.24 449.225 147.72C450.825 148.2 452.455 148.44 454.115 148.44C455.315 148.44 456.135 148.29 456.575 147.99C457.035 147.69 457.265 147.27 457.265 146.73C457.265 146.21 456.865 145.75 456.065 145.35C455.265 144.93 453.965 144.45 452.165 143.91C447.505 142.51 445.175 139.61 445.175 135.21C445.175 133.41 445.695 131.87 446.735 130.59C447.775 129.29 449.105 128.35 450.725 127.77C452.345 127.19 454.155 126.9 456.155 126.9C459.575 126.9 462.095 127.53 463.715 128.79C464.075 129.13 464.255 129.3 464.255 129.3L462.935 133.59C461.615 132.29 459.795 131.64 457.475 131.64C455.575 131.64 454.625 132.2 454.625 133.32C454.625 133.64 454.695 133.91 454.835 134.13C454.975 134.33 455.205 134.51 455.525 134.67C455.865 134.81 456.195 134.93 456.515 135.03C456.835 135.11 457.285 135.23 457.865 135.39C458.445 135.53 458.945 135.66 459.365 135.78C461.705 136.56 463.405 137.66 464.465 139.08C465.525 140.5 466.055 142.27 466.055 144.39C466.055 150.55 462.185 153.63 454.445 153.63Z" fill="white"/>
<path d="M210.124 99.12C207.386 99.12 204.826 98.8711 202.444 98.3733C200.098 97.9111 198.124 97.2889 196.524 96.5067C194.924 95.7244 193.609 94.9778 192.577 94.2667C191.582 93.5556 190.746 92.8444 190.071 92.1333L191.404 79.1733C192.862 81.1289 194.817 82.8356 197.271 84.2933C199.724 85.7156 202.373 86.4267 205.217 86.4267C208.062 86.4267 210.106 86.1244 211.351 85.52C212.631 84.9156 213.271 83.8133 213.271 82.2133C213.271 80.5067 212.542 79.0489 211.084 77.84C209.662 76.6311 207.191 75.1733 203.671 73.4667C202.391 72.8267 201.306 72.2578 200.418 71.76C199.529 71.2267 198.338 70.3733 196.844 69.2C195.386 67.9911 194.195 66.7467 193.271 65.4667C192.346 64.1511 191.529 62.48 190.817 60.4533C190.106 58.3911 189.751 56.1867 189.751 53.84C189.751 41.1467 196.915 34.8 211.244 34.8C213.52 34.8 215.653 35.0489 217.644 35.5467C219.671 36.0089 221.253 36.5244 222.391 37.0933C223.529 37.6622 224.56 38.3378 225.484 39.12C226.444 39.8667 227.049 40.4 227.297 40.72C227.546 41.0044 227.724 41.2356 227.831 41.4133L225.164 51.7067C223.777 50.0711 222.035 48.8622 219.938 48.08C217.875 47.2622 215.902 46.8533 214.018 46.8533C209.466 46.8533 207.191 48.2756 207.191 51.12C207.191 51.8667 207.333 52.5422 207.617 53.1467C207.902 53.7511 208.364 54.3022 209.004 54.8C209.644 55.2978 210.231 55.7244 210.764 56.08C211.333 56.4356 212.098 56.88 213.058 57.4133C214.053 57.9111 214.8 58.32 215.298 58.64C220.489 60.8444 224.293 63.4578 226.711 66.48C229.164 69.5022 230.391 73.1822 230.391 77.52C230.391 84.56 228.649 89.9289 225.164 93.6267C221.715 97.2889 216.702 99.12 210.124 99.12ZM261.855 98H245.002L230.122 35.4933H247.882L250.709 57.04L254.922 77.9467L260.309 57.04L261.695 51.3333L257.589 35.4933H275.029L278.869 57.04L283.562 77.9467L286.495 57.04L289.642 35.4933H305.855L292.095 98H273.909L267.349 72.88L261.855 98ZM344.793 98H306.98V35.4933H343.993L342.926 48.08L324.633 47.5467V59.6H339.033V72.08L324.633 71.0133V85.2L344.793 84.6667V98Z" fill="white"/>
</svg>
