<svg width="398" height="131" viewBox="0 0 398 131" fill="none" xmlns="http://www.w3.org/2000/svg">
<rect y="0.660461" width="398" height="130.34" fill="#1E1E1E"/>
<path d="M53.3258 119.008C52.128 119.008 51.008 118.899 49.9658 118.681C48.9391 118.479 48.0758 118.207 47.3758 117.864C46.6758 117.522 46.1003 117.195 45.6491 116.884C45.2136 116.573 44.848 116.262 44.5525 115.951L45.1358 110.281C45.7736 111.137 46.6291 111.883 47.7025 112.521C48.7758 113.143 49.9347 113.454 51.1791 113.454C52.4236 113.454 53.318 113.322 53.8625 113.058C54.4225 112.793 54.7025 112.311 54.7025 111.611C54.7025 110.864 54.3836 110.227 53.7458 109.698C53.1236 109.169 52.0425 108.531 50.5025 107.784C49.9425 107.504 49.468 107.255 49.0791 107.038C48.6903 106.804 48.1691 106.431 47.5158 105.918C46.878 105.389 46.3569 104.844 45.9525 104.284C45.548 103.709 45.1903 102.978 44.8791 102.091C44.568 101.189 44.4125 100.224 44.4125 99.1976C44.4125 93.6443 47.5469 90.8676 53.8158 90.8676C54.8114 90.8676 55.7447 90.9765 56.6158 91.1943C57.5025 91.3965 58.1947 91.6221 58.6925 91.871C59.1903 92.1199 59.6414 92.4154 60.0458 92.7576C60.4658 93.0843 60.7303 93.3176 60.8391 93.4576C60.948 93.5821 61.0258 93.6832 61.0725 93.761L59.9058 98.2643C59.2991 97.5487 58.5369 97.0199 57.6191 96.6776C56.7169 96.3199 55.8536 96.141 55.0291 96.141C53.038 96.141 52.0425 96.7632 52.0425 98.0076C52.0425 98.3343 52.1047 98.6299 52.2291 98.8943C52.3536 99.1588 52.5558 99.3999 52.8358 99.6176C53.1158 99.8354 53.3725 100.022 53.6058 100.178C53.8547 100.333 54.1891 100.528 54.6091 100.761C55.0447 100.979 55.3714 101.158 55.5891 101.298C57.8603 102.262 59.5247 103.405 60.5825 104.728C61.6558 106.05 62.1925 107.66 62.1925 109.558C62.1925 112.638 61.4303 114.987 59.9058 116.604C58.3969 118.207 56.2036 119.008 53.3258 119.008ZM74.3016 116.208C74.986 116.208 75.5071 115.928 75.8649 115.368C76.2382 114.792 76.4249 114.007 76.4249 113.011V105.638C76.4249 102.604 75.7093 101.088 74.2782 101.088C73.6093 101.088 73.0882 101.36 72.7149 101.904C72.3416 102.449 72.1549 103.219 72.1549 104.214V111.798C72.1549 114.738 72.8705 116.208 74.3016 116.208ZM74.1149 119.008C70.5527 119.008 67.9471 118.199 66.2982 116.581C64.6493 114.963 63.8249 112.381 63.8249 108.834C63.8249 105.319 64.6571 102.674 66.3216 100.901C67.986 99.1121 70.6927 98.2176 74.4416 98.2176C78.0971 98.2176 80.7338 99.0732 82.3516 100.784C83.9849 102.48 84.8016 105.054 84.8016 108.508C84.8016 112.085 83.9382 114.73 82.2116 116.441C80.5005 118.152 77.8016 119.008 74.1149 119.008ZM98.7534 115.414C98.6601 115.632 98.4657 115.92 98.1701 116.278C97.8901 116.635 97.5168 117.032 97.0501 117.468C96.5834 117.888 96.0079 118.245 95.3234 118.541C94.639 118.852 93.9468 119.008 93.2468 119.008C91.0534 119.008 89.4823 118.354 88.5334 117.048C87.6001 115.741 87.1334 113.563 87.1334 110.514V102.208L86.3168 101.368V98.6843H94.7868V111.984C94.7712 112.684 94.8879 113.205 95.1368 113.548C95.3857 113.874 95.8368 114.038 96.4901 114.038C96.5834 114.038 96.669 114.038 96.7468 114.038C96.8245 114.022 96.9023 114.007 96.9801 113.991C97.0579 113.96 97.1201 113.937 97.1668 113.921C97.229 113.905 97.299 113.882 97.3768 113.851C97.4545 113.804 97.5168 113.765 97.5634 113.734C97.6101 113.703 97.6723 113.664 97.7501 113.618C97.8279 113.555 97.8823 113.509 97.9134 113.478C97.9601 113.447 98.0223 113.4 98.1001 113.338C98.1934 113.26 98.2634 113.205 98.3101 113.174V102.208L97.0501 101.368V98.6843H105.94V118.518H99.4768L98.7534 115.414ZM116.687 118.518H109.15V103.421L107.75 102.558V100.061L112.767 98.6843H116.733V101.694L117.013 101.344C117.2 101.095 117.472 100.8 117.83 100.458C118.203 100.115 118.616 99.781 119.067 99.4543C119.518 99.1121 120.055 98.8243 120.677 98.591C121.315 98.3421 121.937 98.2176 122.543 98.2176C124.675 98.2176 126.176 98.801 127.047 99.9676C127.933 101.134 128.377 103.087 128.377 105.824C128.377 105.918 128.377 106.058 128.377 106.244C128.361 106.431 128.353 106.579 128.353 106.688V118.518H120.653V106.011C120.7 104.549 120.078 103.818 118.787 103.818C118.693 103.818 118.6 103.825 118.507 103.841C118.429 103.857 118.351 103.872 118.273 103.888C118.211 103.903 118.133 103.934 118.04 103.981C117.962 104.012 117.892 104.043 117.83 104.074C117.768 104.09 117.698 104.129 117.62 104.191C117.542 104.238 117.48 104.277 117.433 104.308C117.387 104.339 117.317 104.393 117.223 104.471C117.146 104.533 117.083 104.58 117.037 104.611C117.006 104.642 116.943 104.697 116.85 104.774C116.772 104.837 116.718 104.883 116.687 104.914V118.518ZM144.342 118.518L143.432 115.508C143.307 115.725 143.16 115.943 142.989 116.161C142.833 116.379 142.576 116.659 142.219 117.001C141.861 117.328 141.48 117.615 141.075 117.864C140.671 118.113 140.165 118.331 139.559 118.518C138.952 118.704 138.314 118.798 137.645 118.798C135.079 118.798 133.196 117.919 131.999 116.161C130.801 114.403 130.202 111.961 130.202 108.834C130.202 106.874 130.482 105.132 131.042 103.608C131.602 102.068 132.481 100.831 133.679 99.8976C134.876 98.9643 136.323 98.4976 138.019 98.4976C139.03 98.4976 139.932 98.6065 140.725 98.8243C141.519 99.0421 142.203 99.3065 142.779 99.6176V92.5476L140.212 91.6843V89.1176L148.472 87.951H150.292V118.518H144.342ZM141.052 114.224C141.332 114.224 141.62 114.178 141.915 114.084C142.211 113.975 142.499 113.828 142.779 113.641V101.904C142.296 101.795 141.853 101.741 141.449 101.741C139.38 101.757 138.337 103.351 138.322 106.524V109.791C138.322 111.253 138.579 112.358 139.092 113.104C139.605 113.851 140.259 114.224 141.052 114.224ZM164.484 118.518H157.11L150.6 91.171H158.37L159.607 100.598L161.45 109.744L163.807 100.598L164.414 98.101L162.617 91.171H170.247L171.927 100.598L173.98 109.744L175.264 100.598L176.64 91.171H183.734L177.714 118.518H169.757L166.887 107.528L164.484 118.518ZM194.562 116.441L194.329 116.698C194.173 116.884 193.932 117.102 193.605 117.351C193.294 117.6 192.929 117.849 192.509 118.098C192.104 118.347 191.607 118.557 191.015 118.728C190.424 118.914 189.818 119.008 189.195 119.008C184.995 119.008 182.895 116.931 182.895 112.778C182.895 111.969 183.043 111.23 183.339 110.561C183.634 109.877 184.015 109.301 184.482 108.834C184.949 108.368 185.509 107.955 186.162 107.598C186.815 107.224 187.469 106.937 188.122 106.734C188.791 106.517 189.491 106.338 190.222 106.198C190.953 106.058 191.607 105.964 192.182 105.918C192.758 105.871 193.31 105.848 193.839 105.848V105.428C193.839 104.479 193.582 103.81 193.069 103.421C192.571 103.032 191.762 102.838 190.642 102.838C189.678 102.838 188.674 102.954 187.632 103.188C186.59 103.405 185.773 103.67 185.182 103.981L183.689 100.808C184.747 100.123 186.123 99.5243 187.819 99.011C189.514 98.4821 191.241 98.2176 192.999 98.2176C194.554 98.2176 195.838 98.3732 196.849 98.6843C197.86 98.9799 198.677 99.4932 199.299 100.224C199.937 100.94 200.388 101.858 200.652 102.978C200.917 104.082 201.049 105.49 201.049 107.201V116.698L201.702 118.518H195.309L194.562 116.441ZM192.719 114.901C192.921 114.901 193.108 114.862 193.279 114.784C193.465 114.691 193.605 114.605 193.699 114.528C193.792 114.434 193.839 114.388 193.839 114.388V108.788C192.89 108.788 192.135 109.052 191.575 109.581C191.015 110.094 190.735 110.895 190.735 111.984C190.735 113.929 191.397 114.901 192.719 114.901ZM208.56 118.518L201.7 98.6843H210.076L211.57 105.848L212.643 112.031L213.833 105.848L215.56 98.6843H221.86L215.91 118.518H208.56ZM233.65 106.454C233.65 104.479 233.549 103.079 233.347 102.254C233.145 101.43 232.771 101.018 232.227 101.018C231.76 101.018 231.379 101.103 231.084 101.274C230.788 101.43 230.57 101.687 230.43 102.044C230.29 102.387 230.197 102.744 230.15 103.118C230.119 103.475 230.104 103.934 230.104 104.494V106.454H233.65ZM231.784 119.008C230.041 119.008 228.525 118.743 227.234 118.214C225.958 117.685 224.947 116.947 224.2 115.998C223.469 115.049 222.932 113.983 222.59 112.801C222.248 111.603 222.077 110.273 222.077 108.811C222.077 105.327 222.964 102.69 224.737 100.901C226.51 99.1121 228.991 98.2176 232.18 98.2176C235.245 98.2176 237.438 98.941 238.76 100.388C240.082 101.819 240.744 104.129 240.744 107.318V109.908H230.08V110.351C230.08 111.269 230.174 112.023 230.36 112.614C230.562 113.205 230.85 113.641 231.224 113.921C231.597 114.201 231.978 114.388 232.367 114.481C232.756 114.574 233.23 114.621 233.79 114.621C234.335 114.621 234.918 114.551 235.54 114.411C236.178 114.271 236.816 114.053 237.454 113.758C238.107 113.462 238.651 113.112 239.087 112.708L240.464 115.064C239.888 115.998 239.04 116.783 237.92 117.421C236.816 118.043 235.75 118.463 234.724 118.681C233.697 118.899 232.717 119.008 231.784 119.008ZM259.558 118.518H243.015V91.171H259.208L258.741 96.6776L250.738 96.4443V101.718H257.038V107.178L250.738 106.711V112.918L259.558 112.684V118.518ZM266.32 118.518H259.973L265.037 108.788L259.623 98.6843H268.607L270.66 103.958L273.087 98.6843H279.457L274.23 108.158L279.783 118.518H270.94L268.607 112.988L266.32 118.518ZM293.021 118.518C292.118 118.518 291.294 118.424 290.547 118.238C289.801 118.051 289.147 117.818 288.587 117.538V125.564H281.074V103.421L279.674 102.558V100.061L284.691 98.6843H288.587V100.248C289.147 99.6721 289.824 99.1899 290.617 98.801C291.411 98.4121 292.336 98.2176 293.394 98.2176C295.961 98.2176 297.843 99.0965 299.041 100.854C300.254 102.612 300.861 105.047 300.861 108.158C300.861 109.62 300.697 110.973 300.371 112.218C300.044 113.447 299.562 114.535 298.924 115.484C298.286 116.433 297.462 117.18 296.451 117.724C295.455 118.253 294.312 118.518 293.021 118.518ZM289.591 115.274C291.675 115.274 292.717 113.68 292.717 110.491V106.524C292.717 105.124 292.476 104.082 291.994 103.398C291.527 102.713 290.921 102.371 290.174 102.371C289.661 102.371 289.132 102.527 288.587 102.838V115.158C288.774 115.204 288.945 115.235 289.101 115.251C289.272 115.267 289.435 115.274 289.591 115.274ZM311.101 118.518H303.564V103.421L302.164 102.558V99.921L307.181 98.6843H309.071L309.747 104.238C310.385 100.427 312.431 98.521 315.884 98.521C316.273 98.521 316.677 98.591 317.097 98.731L316.304 107.038C315.977 106.742 315.262 106.594 314.157 106.594C312.571 106.594 311.552 107.014 311.101 107.854V118.518ZM329.422 106.454C329.422 104.479 329.321 103.079 329.118 102.254C328.916 101.43 328.543 101.018 327.998 101.018C327.532 101.018 327.151 101.103 326.855 101.274C326.559 101.43 326.342 101.687 326.202 102.044C326.062 102.387 325.968 102.744 325.922 103.118C325.891 103.475 325.875 103.934 325.875 104.494V106.454H329.422ZM327.555 119.008C325.813 119.008 324.296 118.743 323.005 118.214C321.729 117.685 320.718 116.947 319.972 115.998C319.241 115.049 318.704 113.983 318.362 112.801C318.019 111.603 317.848 110.273 317.848 108.811C317.848 105.327 318.735 102.69 320.508 100.901C322.282 99.1121 324.763 98.2176 327.952 98.2176C331.016 98.2176 333.209 98.941 334.532 100.388C335.854 101.819 336.515 104.129 336.515 107.318V109.908H325.852V110.351C325.852 111.269 325.945 112.023 326.132 112.614C326.334 113.205 326.622 113.641 326.995 113.921C327.368 114.201 327.749 114.388 328.138 114.481C328.527 114.574 329.002 114.621 329.562 114.621C330.106 114.621 330.689 114.551 331.312 114.411C331.949 114.271 332.587 114.053 333.225 113.758C333.878 113.462 334.423 113.112 334.858 112.708L336.235 115.064C335.659 115.998 334.812 116.783 333.692 117.421C332.587 118.043 331.522 118.463 330.495 118.681C329.468 118.899 328.488 119.008 327.555 119.008ZM345.179 119.008C343.717 119.008 342.239 118.767 340.746 118.284C339.253 117.787 338.296 117.304 337.876 116.838L338.483 113.081C339.012 113.594 339.89 114.038 341.119 114.411C342.364 114.784 343.632 114.971 344.923 114.971C345.856 114.971 346.494 114.854 346.836 114.621C347.194 114.388 347.373 114.061 347.373 113.641C347.373 113.237 347.062 112.879 346.439 112.568C345.817 112.241 344.806 111.868 343.406 111.448C339.782 110.359 337.969 108.103 337.969 104.681C337.969 103.281 338.374 102.083 339.183 101.088C339.992 100.077 341.026 99.3454 342.286 98.8943C343.546 98.4432 344.954 98.2176 346.509 98.2176C349.169 98.2176 351.129 98.7076 352.389 99.6876C352.669 99.9521 352.809 100.084 352.809 100.084L351.783 103.421C350.756 102.41 349.34 101.904 347.536 101.904C346.058 101.904 345.319 102.34 345.319 103.211C345.319 103.46 345.374 103.67 345.483 103.841C345.592 103.997 345.77 104.137 346.019 104.261C346.284 104.37 346.54 104.463 346.789 104.541C347.038 104.603 347.388 104.697 347.839 104.821C348.29 104.93 348.679 105.031 349.006 105.124C350.826 105.731 352.148 106.587 352.973 107.691C353.797 108.795 354.209 110.172 354.209 111.821C354.209 116.612 351.199 119.008 345.179 119.008Z" fill="white"/>
<path d="M156.002 75.84C153.948 75.84 152.028 75.6533 150.242 75.28C148.482 74.9333 147.002 74.4667 145.802 73.88C144.602 73.2933 143.615 72.7333 142.842 72.2C142.095 71.6667 141.468 71.1333 140.962 70.6L141.962 60.88C143.055 62.3467 144.522 63.6267 146.362 64.72C148.202 65.7867 150.188 66.32 152.322 66.32C154.455 66.32 155.988 66.0933 156.922 65.64C157.882 65.1867 158.362 64.36 158.362 63.16C158.362 61.88 157.815 60.7867 156.722 59.88C155.655 58.9733 153.802 57.88 151.162 56.6C150.202 56.12 149.388 55.6933 148.722 55.32C148.055 54.92 147.162 54.28 146.042 53.4C144.948 52.4933 144.055 51.56 143.362 50.6C142.668 49.6133 142.055 48.36 141.522 46.84C140.988 45.2933 140.722 43.64 140.722 41.88C140.722 32.36 146.095 27.6 156.842 27.6C158.548 27.6 160.148 27.7867 161.642 28.16C163.162 28.5067 164.348 28.8933 165.202 29.32C166.055 29.7467 166.828 30.2533 167.522 30.84C168.242 31.4 168.695 31.8 168.882 32.04C169.068 32.2533 169.202 32.4267 169.282 32.56L167.282 40.28C166.242 39.0533 164.935 38.1467 163.362 37.56C161.815 36.9467 160.335 36.64 158.922 36.64C155.508 36.64 153.802 37.7067 153.802 39.84C153.802 40.4 153.908 40.9067 154.122 41.36C154.335 41.8133 154.682 42.2267 155.162 42.6C155.642 42.9733 156.082 43.2933 156.482 43.56C156.908 43.8267 157.482 44.16 158.202 44.56C158.948 44.9333 159.508 45.24 159.882 45.48C163.775 47.1333 166.628 49.0933 168.442 51.36C170.282 53.6267 171.202 56.3867 171.202 59.64C171.202 64.92 169.895 68.9467 167.282 71.72C164.695 74.4667 160.935 75.84 156.002 75.84ZM194.8 75H182.16L171 28.12H184.32L186.44 44.28L189.6 59.96L193.64 44.28L194.68 40L191.6 28.12H204.68L207.56 44.28L211.08 59.96L213.28 44.28L215.64 28.12H227.8L217.48 75H203.84L198.92 56.16L194.8 75ZM257.003 75H228.643V28.12H256.403L255.603 37.56L241.883 37.16V46.2H252.683V55.56L241.883 54.76V65.4L257.003 65V75Z" fill="white"/>
</svg>
