<svg width="398" height="131" viewBox="0 0 398 131" fill="none" xmlns="http://www.w3.org/2000/svg">
<rect y="0.660461" width="398" height="130.34" fill="#1E1E1E"/>
<path d="M44.7467 119.008C43.5489 119.008 42.4289 118.899 41.3867 118.681C40.36 118.479 39.4967 118.207 38.7967 117.864C38.0967 117.522 37.5212 117.195 37.07 116.884C36.6345 116.573 36.2689 116.262 35.9734 115.951L36.5567 110.281C37.1945 111.137 38.05 111.883 39.1234 112.521C40.1967 113.143 41.3556 113.454 42.6 113.454C43.8445 113.454 44.7389 113.322 45.2834 113.058C45.8434 112.793 46.1234 112.311 46.1234 111.611C46.1234 110.864 45.8045 110.227 45.1667 109.698C44.5445 109.169 43.4634 108.531 41.9234 107.784C41.3634 107.504 40.8889 107.255 40.5 107.038C40.1112 106.804 39.59 106.431 38.9367 105.918C38.2989 105.389 37.7778 104.844 37.3734 104.284C36.9689 103.709 36.6112 102.978 36.3 102.091C35.9889 101.189 35.8334 100.224 35.8334 99.1976C35.8334 93.6443 38.9678 90.8676 45.2367 90.8676C46.2323 90.8676 47.1656 90.9765 48.0367 91.1943C48.9234 91.3965 49.6156 91.6221 50.1134 91.871C50.6111 92.1199 51.0623 92.4154 51.4667 92.7576C51.8867 93.0843 52.1511 93.3176 52.26 93.4576C52.3689 93.5821 52.4467 93.6832 52.4934 93.761L51.3267 98.2643C50.72 97.5487 49.9578 97.0199 49.04 96.6776C48.1378 96.3199 47.2745 96.141 46.45 96.141C44.4589 96.141 43.4634 96.7632 43.4634 98.0076C43.4634 98.3343 43.5256 98.6299 43.65 98.8943C43.7745 99.1588 43.9767 99.3999 44.2567 99.6176C44.5367 99.8354 44.7934 100.022 45.0267 100.178C45.2756 100.333 45.61 100.528 46.03 100.761C46.4656 100.979 46.7923 101.158 47.01 101.298C49.2811 102.262 50.9456 103.405 52.0034 104.728C53.0767 106.05 53.6134 107.66 53.6134 109.558C53.6134 112.638 52.8511 114.987 51.3267 116.604C49.8178 118.207 47.6245 119.008 44.7467 119.008ZM65.7225 116.208C66.4069 116.208 66.928 115.928 67.2858 115.368C67.6591 114.792 67.8458 114.007 67.8458 113.011V105.638C67.8458 102.604 67.1302 101.088 65.6991 101.088C65.0302 101.088 64.5091 101.36 64.1358 101.904C63.7625 102.449 63.5758 103.219 63.5758 104.214V111.798C63.5758 114.738 64.2913 116.208 65.7225 116.208ZM65.5358 119.008C61.9736 119.008 59.368 118.199 57.7191 116.581C56.0702 114.963 55.2458 112.381 55.2458 108.834C55.2458 105.319 56.078 102.674 57.7425 100.901C59.4069 99.1121 62.1136 98.2176 65.8625 98.2176C69.518 98.2176 72.1547 99.0732 73.7725 100.784C75.4058 102.48 76.2225 105.054 76.2225 108.508C76.2225 112.085 75.3591 114.73 73.6325 116.441C71.9213 118.152 69.2225 119.008 65.5358 119.008ZM90.1743 115.414C90.081 115.632 89.8866 115.92 89.591 116.278C89.311 116.635 88.9377 117.032 88.471 117.468C88.0043 117.888 87.4288 118.245 86.7443 118.541C86.0599 118.852 85.3677 119.008 84.6677 119.008C82.4743 119.008 80.9032 118.354 79.9543 117.048C79.021 115.741 78.5543 113.563 78.5543 110.514V102.208L77.7377 101.368V98.6843H86.2077V111.984C86.1921 112.684 86.3088 113.205 86.5577 113.548C86.8066 113.874 87.2577 114.038 87.911 114.038C88.0043 114.038 88.0899 114.038 88.1677 114.038C88.2454 114.022 88.3232 114.007 88.401 113.991C88.4788 113.96 88.541 113.937 88.5877 113.921C88.6499 113.905 88.7199 113.882 88.7977 113.851C88.8754 113.804 88.9377 113.765 88.9843 113.734C89.031 113.703 89.0932 113.664 89.171 113.618C89.2488 113.555 89.3032 113.509 89.3343 113.478C89.381 113.447 89.4432 113.4 89.521 113.338C89.6143 113.26 89.6843 113.205 89.731 113.174V102.208L88.471 101.368V98.6843H97.361V118.518H90.8977L90.1743 115.414ZM108.108 118.518H100.571V103.421L99.171 102.558V100.061L104.188 98.6843H108.154V101.694L108.434 101.344C108.621 101.095 108.893 100.8 109.251 100.458C109.624 100.115 110.037 99.781 110.488 99.4543C110.939 99.1121 111.475 98.8243 112.098 98.591C112.735 98.3421 113.358 98.2176 113.964 98.2176C116.095 98.2176 117.597 98.801 118.468 99.9676C119.354 101.134 119.798 103.087 119.798 105.824C119.798 105.918 119.798 106.058 119.798 106.244C119.782 106.431 119.774 106.579 119.774 106.688V118.518H112.074V106.011C112.121 104.549 111.499 103.818 110.208 103.818C110.114 103.818 110.021 103.825 109.928 103.841C109.85 103.857 109.772 103.872 109.694 103.888C109.632 103.903 109.554 103.934 109.461 103.981C109.383 104.012 109.313 104.043 109.251 104.074C109.189 104.09 109.119 104.129 109.041 104.191C108.963 104.238 108.901 104.277 108.854 104.308C108.808 104.339 108.738 104.393 108.644 104.471C108.567 104.533 108.504 104.58 108.458 104.611C108.427 104.642 108.364 104.697 108.271 104.774C108.193 104.837 108.139 104.883 108.108 104.914V118.518ZM135.763 118.518L134.853 115.508C134.728 115.725 134.581 115.943 134.409 116.161C134.254 116.379 133.997 116.659 133.639 117.001C133.282 117.328 132.901 117.615 132.496 117.864C132.092 118.113 131.586 118.331 130.979 118.518C130.373 118.704 129.735 118.798 129.066 118.798C126.499 118.798 124.617 117.919 123.419 116.161C122.222 114.403 121.623 111.961 121.623 108.834C121.623 106.874 121.903 105.132 122.463 103.608C123.023 102.068 123.902 100.831 125.099 99.8976C126.297 98.9643 127.744 98.4976 129.439 98.4976C130.451 98.4976 131.353 98.6065 132.146 98.8243C132.939 99.0421 133.624 99.3065 134.199 99.6176V92.5476L131.633 91.6843V89.1176L139.893 87.951H141.713V118.518H135.763ZM132.473 114.224C132.753 114.224 133.041 114.178 133.336 114.084C133.632 113.975 133.919 113.828 134.199 113.641V101.904C133.717 101.795 133.274 101.741 132.869 101.741C130.801 101.757 129.758 103.351 129.743 106.524V109.791C129.743 111.253 129.999 112.358 130.513 113.104C131.026 113.851 131.679 114.224 132.473 114.224ZM155.905 118.518H148.531L142.021 91.171H149.791L151.028 100.598L152.871 109.744L155.228 100.598L155.835 98.101L154.038 91.171H161.668L163.348 100.598L165.401 109.744L166.685 100.598L168.061 91.171H175.155L169.135 118.518H161.178L158.308 107.528L155.905 118.518ZM185.983 116.441L185.75 116.698C185.594 116.884 185.353 117.102 185.026 117.351C184.715 117.6 184.35 117.849 183.93 118.098C183.525 118.347 183.027 118.557 182.436 118.728C181.845 118.914 181.239 119.008 180.616 119.008C176.416 119.008 174.316 116.931 174.316 112.778C174.316 111.969 174.464 111.23 174.76 110.561C175.055 109.877 175.436 109.301 175.903 108.834C176.37 108.368 176.93 107.955 177.583 107.598C178.236 107.224 178.89 106.937 179.543 106.734C180.212 106.517 180.912 106.338 181.643 106.198C182.374 106.058 183.027 105.964 183.603 105.918C184.179 105.871 184.731 105.848 185.26 105.848V105.428C185.26 104.479 185.003 103.81 184.49 103.421C183.992 103.032 183.183 102.838 182.063 102.838C181.099 102.838 180.095 102.954 179.053 103.188C178.011 103.405 177.194 103.67 176.603 103.981L175.11 100.808C176.167 100.123 177.544 99.5243 179.24 99.011C180.935 98.4821 182.662 98.2176 184.42 98.2176C185.975 98.2176 187.259 98.3732 188.27 98.6843C189.281 98.9799 190.097 99.4932 190.72 100.224C191.357 100.94 191.809 101.858 192.073 102.978C192.337 104.082 192.47 105.49 192.47 107.201V116.698L193.123 118.518H186.73L185.983 116.441ZM184.14 114.901C184.342 114.901 184.529 114.862 184.7 114.784C184.886 114.691 185.026 114.605 185.12 114.528C185.213 114.434 185.26 114.388 185.26 114.388V108.788C184.311 108.788 183.556 109.052 182.996 109.581C182.436 110.094 182.156 110.895 182.156 111.984C182.156 113.929 182.817 114.901 184.14 114.901ZM199.98 118.518L193.12 98.6843H201.497L202.99 105.848L204.064 112.031L205.254 105.848L206.98 98.6843H213.28L207.33 118.518H199.98ZM225.071 106.454C225.071 104.479 224.97 103.079 224.768 102.254C224.566 101.43 224.192 101.018 223.648 101.018C223.181 101.018 222.8 101.103 222.504 101.274C222.209 101.43 221.991 101.687 221.851 102.044C221.711 102.387 221.618 102.744 221.571 103.118C221.54 103.475 221.524 103.934 221.524 104.494V106.454H225.071ZM223.204 119.008C221.462 119.008 219.946 118.743 218.654 118.214C217.379 117.685 216.368 116.947 215.621 115.998C214.89 115.049 214.353 113.983 214.011 112.801C213.669 111.603 213.498 110.273 213.498 108.811C213.498 105.327 214.384 102.69 216.158 100.901C217.931 99.1121 220.412 98.2176 223.601 98.2176C226.666 98.2176 228.859 98.941 230.181 100.388C231.503 101.819 232.164 104.129 232.164 107.318V109.908H221.501V110.351C221.501 111.269 221.594 112.023 221.781 112.614C221.983 113.205 222.271 113.641 222.644 113.921C223.018 114.201 223.399 114.388 223.788 114.481C224.177 114.574 224.651 114.621 225.211 114.621C225.756 114.621 226.339 114.551 226.961 114.411C227.599 114.271 228.237 114.053 228.874 113.758C229.528 113.462 230.072 113.112 230.508 112.708L231.884 115.064C231.309 115.998 230.461 116.783 229.341 117.421C228.237 118.043 227.171 118.463 226.144 118.681C225.118 118.899 224.138 119.008 223.204 119.008ZM250.979 118.518H234.435V91.171H250.629L250.162 96.6776L242.159 96.4443V101.718H248.459V107.178L242.159 106.711V112.918L250.979 112.684V118.518ZM257.741 118.518H251.394L256.458 108.788L251.044 98.6843H260.028L262.081 103.958L264.508 98.6843H270.878L265.651 108.158L271.204 118.518H262.361L260.028 112.988L257.741 118.518ZM284.441 118.518C283.539 118.518 282.715 118.424 281.968 118.238C281.221 118.051 280.568 117.818 280.008 117.538V125.564H272.495V103.421L271.095 102.558V100.061L276.111 98.6843H280.008V100.248C280.568 99.6721 281.245 99.1899 282.038 98.801C282.831 98.4121 283.757 98.2176 284.815 98.2176C287.381 98.2176 289.264 99.0965 290.461 100.854C291.675 102.612 292.281 105.047 292.281 108.158C292.281 109.62 292.118 110.973 291.791 112.218C291.465 113.447 290.983 114.535 290.345 115.484C289.707 116.433 288.883 117.18 287.871 117.724C286.876 118.253 285.733 118.518 284.441 118.518ZM281.011 115.274C283.096 115.274 284.138 113.68 284.138 110.491V106.524C284.138 105.124 283.897 104.082 283.415 103.398C282.948 102.713 282.341 102.371 281.595 102.371C281.081 102.371 280.553 102.527 280.008 102.838V115.158C280.195 115.204 280.366 115.235 280.521 115.251C280.693 115.267 280.856 115.274 281.011 115.274ZM302.522 118.518H294.985V103.421L293.585 102.558V99.921L298.602 98.6843H300.492L301.168 104.238C301.806 100.427 303.852 98.521 307.305 98.521C307.694 98.521 308.098 98.591 308.518 98.731L307.725 107.038C307.398 106.742 306.683 106.594 305.578 106.594C303.992 106.594 302.973 107.014 302.522 107.854V118.518ZM320.843 106.454C320.843 104.479 320.741 103.079 320.539 102.254C320.337 101.43 319.964 101.018 319.419 101.018C318.953 101.018 318.571 101.103 318.276 101.274C317.98 101.43 317.763 101.687 317.623 102.044C317.483 102.387 317.389 102.744 317.343 103.118C317.311 103.475 317.296 103.934 317.296 104.494V106.454H320.843ZM318.976 119.008C317.234 119.008 315.717 118.743 314.426 118.214C313.15 117.685 312.139 116.947 311.393 115.998C310.661 115.049 310.125 113.983 309.783 112.801C309.44 111.603 309.269 110.273 309.269 108.811C309.269 105.327 310.156 102.69 311.929 100.901C313.703 99.1121 316.184 98.2176 319.373 98.2176C322.437 98.2176 324.63 98.941 325.953 100.388C327.275 101.819 327.936 104.129 327.936 107.318V109.908H317.273V110.351C317.273 111.269 317.366 112.023 317.553 112.614C317.755 113.205 318.043 113.641 318.416 113.921C318.789 114.201 319.17 114.388 319.559 114.481C319.948 114.574 320.423 114.621 320.983 114.621C321.527 114.621 322.11 114.551 322.733 114.411C323.37 114.271 324.008 114.053 324.646 113.758C325.299 113.462 325.844 113.112 326.279 112.708L327.656 115.064C327.08 115.998 326.233 116.783 325.113 117.421C324.008 118.043 322.943 118.463 321.916 118.681C320.889 118.899 319.909 119.008 318.976 119.008ZM336.6 119.008C335.138 119.008 333.66 118.767 332.167 118.284C330.674 117.787 329.717 117.304 329.297 116.838L329.904 113.081C330.432 113.594 331.311 114.038 332.54 114.411C333.785 114.784 335.052 114.971 336.344 114.971C337.277 114.971 337.915 114.854 338.257 114.621C338.615 114.388 338.794 114.061 338.794 113.641C338.794 113.237 338.482 112.879 337.86 112.568C337.238 112.241 336.227 111.868 334.827 111.448C331.202 110.359 329.39 108.103 329.39 104.681C329.39 103.281 329.795 102.083 330.604 101.088C331.412 100.077 332.447 99.3454 333.707 98.8943C334.967 98.4432 336.375 98.2176 337.93 98.2176C340.59 98.2176 342.55 98.7076 343.81 99.6876C344.09 99.9521 344.23 100.084 344.23 100.084L343.204 103.421C342.177 102.41 340.761 101.904 338.957 101.904C337.479 101.904 336.74 102.34 336.74 103.211C336.74 103.46 336.795 103.67 336.904 103.841C337.012 103.997 337.191 104.137 337.44 104.261C337.705 104.37 337.961 104.463 338.21 104.541C338.459 104.603 338.809 104.697 339.26 104.821C339.711 104.93 340.1 105.031 340.427 105.124C342.247 105.731 343.569 106.587 344.394 107.691C345.218 108.795 345.63 110.172 345.63 111.821C345.63 116.612 342.62 119.008 336.6 119.008ZM353.758 119.008C352.296 119.008 350.818 118.767 349.325 118.284C347.832 117.787 346.875 117.304 346.455 116.838L347.062 113.081C347.591 113.594 348.47 114.038 349.698 114.411C350.943 114.784 352.211 114.971 353.502 114.971C354.435 114.971 355.073 114.854 355.415 114.621C355.773 114.388 355.952 114.061 355.952 113.641C355.952 113.237 355.641 112.879 355.018 112.568C354.396 112.241 353.385 111.868 351.985 111.448C348.361 110.359 346.548 108.103 346.548 104.681C346.548 103.281 346.953 102.083 347.762 101.088C348.571 100.077 349.605 99.3454 350.865 98.8943C352.125 98.4432 353.533 98.2176 355.088 98.2176C357.748 98.2176 359.708 98.7076 360.968 99.6876C361.248 99.9521 361.388 100.084 361.388 100.084L360.362 103.421C359.335 102.41 357.92 101.904 356.115 101.904C354.637 101.904 353.898 102.34 353.898 103.211C353.898 103.46 353.953 103.67 354.062 103.841C354.171 103.997 354.35 104.137 354.598 104.261C354.863 104.37 355.12 104.463 355.368 104.541C355.617 104.603 355.967 104.697 356.418 104.821C356.87 104.93 357.258 105.031 357.585 105.124C359.405 105.731 360.727 106.587 361.552 107.691C362.376 108.795 362.788 110.172 362.788 111.821C362.788 116.612 359.778 119.008 353.758 119.008Z" fill="white"/>
<path d="M156.002 75.84C153.948 75.84 152.028 75.6533 150.242 75.28C148.482 74.9333 147.002 74.4667 145.802 73.88C144.602 73.2933 143.615 72.7333 142.842 72.2C142.095 71.6667 141.468 71.1333 140.962 70.6L141.962 60.88C143.055 62.3467 144.522 63.6267 146.362 64.72C148.202 65.7867 150.188 66.32 152.322 66.32C154.455 66.32 155.988 66.0933 156.922 65.64C157.882 65.1867 158.362 64.36 158.362 63.16C158.362 61.88 157.815 60.7867 156.722 59.88C155.655 58.9733 153.802 57.88 151.162 56.6C150.202 56.12 149.388 55.6933 148.722 55.32C148.055 54.92 147.162 54.28 146.042 53.4C144.948 52.4933 144.055 51.56 143.362 50.6C142.668 49.6133 142.055 48.36 141.522 46.84C140.988 45.2933 140.722 43.64 140.722 41.88C140.722 32.36 146.095 27.6 156.842 27.6C158.548 27.6 160.148 27.7867 161.642 28.16C163.162 28.5067 164.348 28.8933 165.202 29.32C166.055 29.7467 166.828 30.2533 167.522 30.84C168.242 31.4 168.695 31.8 168.882 32.04C169.068 32.2533 169.202 32.4267 169.282 32.56L167.282 40.28C166.242 39.0533 164.935 38.1467 163.362 37.56C161.815 36.9467 160.335 36.64 158.922 36.64C155.508 36.64 153.802 37.7067 153.802 39.84C153.802 40.4 153.908 40.9067 154.122 41.36C154.335 41.8133 154.682 42.2267 155.162 42.6C155.642 42.9733 156.082 43.2933 156.482 43.56C156.908 43.8267 157.482 44.16 158.202 44.56C158.948 44.9333 159.508 45.24 159.882 45.48C163.775 47.1333 166.628 49.0933 168.442 51.36C170.282 53.6267 171.202 56.3867 171.202 59.64C171.202 64.92 169.895 68.9467 167.282 71.72C164.695 74.4667 160.935 75.84 156.002 75.84ZM194.8 75H182.16L171 28.12H184.32L186.44 44.28L189.6 59.96L193.64 44.28L194.68 40L191.6 28.12H204.68L207.56 44.28L211.08 59.96L213.28 44.28L215.64 28.12H227.8L217.48 75H203.84L198.92 56.16L194.8 75ZM257.003 75H228.643V28.12H256.403L255.603 37.56L241.883 37.16V46.2H252.683V55.56L241.883 54.76V65.4L257.003 65V75Z" fill="white"/>
</svg>
